<svg xmlns="http://www.w3.org/2000/svg" xmlns:xlink="http://www.w3.org/1999/xlink" width="200"
    zoomAndPan="magnify" viewBox="0 0 150 74.999997" height="100"
    preserveAspectRatio="xMidYMid meet" version="1.0">
    <defs>
        <g />
        <clipPath id="3e5c2773a6">
            <path
                d="M 98.539062 12.683594 L 148.222656 12.683594 L 148.222656 62.367188 L 98.539062 62.367188 Z M 98.539062 12.683594 "
                clip-rule="nonzero" />
        </clipPath>
    </defs>
    <g clip-path="url(#3e5c2773a6)">
        <path fill="#ffde59"
            d="M 138.867188 12.683594 L 107.847656 12.683594 C 102.707031 12.683594 98.539062 16.847656 98.539062 21.988281 L 98.539062 53.007812 C 98.539062 58.148438 102.707031 62.316406 107.847656 62.316406 L 138.867188 62.316406 C 144.007812 62.316406 148.171875 58.148438 148.171875 53.007812 L 148.171875 21.988281 C 148.171875 16.847656 144.007812 12.683594 138.867188 12.683594 Z M 120.019531 39.457031 C 120.019531 43.175781 117.851562 43.957031 116.035156 43.957031 C 115.433594 43.957031 114.703125 43.828125 114.253906 43.644531 C 114.046875 43.558594 113.925781 43.339844 113.964844 43.117188 L 114.191406 41.898438 C 114.214844 41.757812 114.300781 41.636719 114.429688 41.566406 C 114.550781 41.496094 114.703125 41.484375 114.835938 41.539062 C 114.980469 41.59375 115.382812 41.730469 115.914062 41.730469 C 116.820312 41.730469 117.570312 41.546875 117.570312 39.335938 L 117.570312 31.710938 C 117.570312 31.445312 117.78125 31.230469 118.046875 31.230469 L 119.539062 31.230469 C 119.804688 31.230469 120.019531 31.445312 120.019531 31.710938 Z M 126.3125 43.941406 C 125.140625 43.941406 123.816406 43.605469 123.089844 43.121094 C 122.914062 43.003906 122.835938 42.785156 122.898438 42.585938 L 123.273438 41.332031 C 123.316406 41.191406 123.421875 41.078125 123.5625 41.023438 C 123.699219 40.972656 123.851562 40.984375 123.980469 41.066406 C 124.679688 41.496094 125.589844 41.75 126.410156 41.75 C 127.628906 41.75 128.359375 41.1875 128.359375 40.25 C 128.359375 39.511719 128.058594 39 126.480469 38.390625 C 124.222656 37.589844 123.117188 36.367188 123.117188 34.664062 C 123.117188 32.566406 124.894531 31.042969 127.339844 31.042969 C 128.804688 31.042969 129.71875 31.4375 130.136719 31.671875 C 130.335938 31.785156 130.425781 32.023438 130.351562 32.238281 L 129.941406 33.460938 C 129.898438 33.59375 129.792969 33.703125 129.664062 33.75 C 129.535156 33.804688 129.386719 33.792969 129.261719 33.726562 C 128.925781 33.542969 128.222656 33.234375 127.289062 33.234375 C 126.03125 33.234375 125.585938 33.914062 125.585938 34.492188 C 125.585938 35.183594 125.882812 35.625 127.582031 36.28125 C 129.195312 36.902344 130.84375 37.847656 130.84375 40.132812 C 130.84375 42.023438 129.441406 43.941406 126.3125 43.941406 Z M 126.3125 43.941406 "
            fill-opacity="1" fill-rule="nonzero" />
    </g>
    <g fill="#ffffff" fill-opacity="1">
        <g transform="translate(5.669311, 46.678974)">
            <g>
                <path
                    d="M 10.84375 0 L 10.109375 -1.890625 L 10.015625 -1.890625 C 9.367188 -1.085938 8.707031 -0.53125 8.03125 -0.21875 C 7.351562 0.09375 6.472656 0.25 5.390625 0.25 C 4.046875 0.25 2.988281 -0.128906 2.21875 -0.890625 C 1.457031 -1.660156 1.078125 -2.75 1.078125 -4.15625 C 1.078125 -5.644531 1.59375 -6.738281 2.625 -7.4375 C 3.65625 -8.132812 5.21875 -8.523438 7.3125 -8.609375 L 9.71875 -8.671875 L 9.71875 -9.28125 C 9.71875 -10.695312 8.992188 -11.40625 7.546875 -11.40625 C 6.441406 -11.40625 5.132812 -11.066406 3.625 -10.390625 L 2.375 -12.96875 C 3.976562 -13.800781 5.753906 -14.21875 7.703125 -14.21875 C 9.578125 -14.21875 11.007812 -13.8125 12 -13 C 13 -12.1875 13.5 -10.945312 13.5 -9.28125 L 13.5 0 Z M 9.71875 -6.453125 L 8.25 -6.40625 C 7.144531 -6.375 6.320312 -6.175781 5.78125 -5.8125 C 5.238281 -5.445312 4.96875 -4.890625 4.96875 -4.140625 C 4.96875 -3.066406 5.582031 -2.53125 6.8125 -2.53125 C 7.695312 -2.53125 8.398438 -2.78125 8.921875 -3.28125 C 9.453125 -3.789062 9.71875 -4.46875 9.71875 -5.3125 Z M 9.71875 -6.453125 " />
            </g>
        </g>
    </g>
    <g fill="#ffffff" fill-opacity="1">
        <g transform="translate(21.085565, 46.678974)">
            <g>
                <path
                    d="M 6.40625 0.25 C 4.769531 0.25 3.484375 -0.382812 2.546875 -1.65625 C 1.609375 -2.925781 1.140625 -4.6875 1.140625 -6.9375 C 1.140625 -9.226562 1.613281 -11.007812 2.5625 -12.28125 C 3.519531 -13.5625 4.832031 -14.203125 6.5 -14.203125 C 8.257812 -14.203125 9.597656 -13.519531 10.515625 -12.15625 L 10.640625 -12.15625 C 10.453125 -13.195312 10.359375 -14.125 10.359375 -14.9375 L 10.359375 -19.390625 L 14.171875 -19.390625 L 14.171875 0 L 11.25 0 L 10.515625 -1.8125 L 10.359375 -1.8125 C 9.492188 -0.4375 8.175781 0.25 6.40625 0.25 Z M 7.734375 -2.78125 C 8.710938 -2.78125 9.425781 -3.0625 9.875 -3.625 C 10.332031 -4.1875 10.582031 -5.144531 10.625 -6.5 L 10.625 -6.921875 C 10.625 -8.410156 10.390625 -9.476562 9.921875 -10.125 C 9.460938 -10.78125 8.710938 -11.109375 7.671875 -11.109375 C 6.828125 -11.109375 6.171875 -10.75 5.703125 -10.03125 C 5.234375 -9.3125 5 -8.265625 5 -6.890625 C 5 -5.523438 5.234375 -4.5 5.703125 -3.8125 C 6.179688 -3.125 6.859375 -2.78125 7.734375 -2.78125 Z M 7.734375 -2.78125 " />
            </g>
        </g>
    </g>
    <g fill="#ffffff" fill-opacity="1">
        <g transform="translate(37.237114, 46.678974)">
            <g>
                <path
                    d="M 5.3125 0 L 0 -13.9375 L 3.984375 -13.9375 L 6.671875 -6 C 6.972656 -4.988281 7.160156 -4.035156 7.234375 -3.140625 L 7.3125 -3.140625 C 7.351562 -3.941406 7.535156 -4.894531 7.859375 -6 L 10.546875 -13.9375 L 14.515625 -13.9375 L 9.21875 0 Z M 5.3125 0 " />
            </g>
        </g>
    </g>
    <g fill="#ffffff" fill-opacity="1">
        <g transform="translate(51.756061, 46.678974)">
            <g>
                <path
                    d="M 7.765625 -11.5 C 6.960938 -11.5 6.332031 -11.238281 5.875 -10.71875 C 5.414062 -10.207031 5.15625 -9.484375 5.09375 -8.546875 L 10.421875 -8.546875 C 10.398438 -9.484375 10.148438 -10.207031 9.671875 -10.71875 C 9.203125 -11.238281 8.566406 -11.5 7.765625 -11.5 Z M 8.296875 0.25 C 6.054688 0.25 4.300781 -0.367188 3.03125 -1.609375 C 1.769531 -2.847656 1.140625 -4.601562 1.140625 -6.875 C 1.140625 -9.207031 1.722656 -11.007812 2.890625 -12.28125 C 4.066406 -13.5625 5.679688 -14.203125 7.734375 -14.203125 C 9.710938 -14.203125 11.25 -13.640625 12.34375 -12.515625 C 13.4375 -11.390625 13.984375 -9.835938 13.984375 -7.859375 L 13.984375 -6.015625 L 5 -6.015625 C 5.039062 -4.941406 5.359375 -4.097656 5.953125 -3.484375 C 6.554688 -2.878906 7.398438 -2.578125 8.484375 -2.578125 C 9.316406 -2.578125 10.109375 -2.664062 10.859375 -2.84375 C 11.609375 -3.019531 12.390625 -3.296875 13.203125 -3.671875 L 13.203125 -0.734375 C 12.535156 -0.398438 11.820312 -0.15625 11.0625 0 C 10.3125 0.164062 9.390625 0.25 8.296875 0.25 Z M 8.296875 0.25 " />
            </g>
        </g>
    </g>
    <g fill="#ffffff" fill-opacity="1">
        <g transform="translate(66.835825, 46.678974)">
            <g>
                <path
                    d="M 14.859375 0 L 11.0625 0 L 11.0625 -8.140625 C 11.0625 -9.148438 10.878906 -9.90625 10.515625 -10.40625 C 10.160156 -10.90625 9.59375 -11.15625 8.8125 -11.15625 C 7.75 -11.15625 6.976562 -10.800781 6.5 -10.09375 C 6.03125 -9.382812 5.796875 -8.207031 5.796875 -6.5625 L 5.796875 0 L 2 0 L 2 -13.9375 L 4.90625 -13.9375 L 5.40625 -12.15625 L 5.625 -12.15625 C 6.050781 -12.832031 6.632812 -13.34375 7.375 -13.6875 C 8.113281 -14.03125 8.957031 -14.203125 9.90625 -14.203125 C 11.53125 -14.203125 12.757812 -13.757812 13.59375 -12.875 C 14.4375 -12 14.859375 -10.738281 14.859375 -9.09375 Z M 14.859375 0 " />
            </g>
        </g>
    </g>
    <g fill="#ffffff" fill-opacity="1">
        <g transform="translate(83.610504, 46.678974)">
            <g>
                <path
                    d="M 7.859375 -2.78125 C 8.523438 -2.78125 9.328125 -2.925781 10.265625 -3.21875 L 10.265625 -0.390625 C 9.316406 0.0351562 8.148438 0.25 6.765625 0.25 C 5.242188 0.25 4.132812 -0.132812 3.4375 -0.90625 C 2.75 -1.675781 2.40625 -2.828125 2.40625 -4.359375 L 2.40625 -11.078125 L 0.578125 -11.078125 L 0.578125 -12.6875 L 2.6875 -13.96875 L 3.78125 -16.90625 L 6.203125 -16.90625 L 6.203125 -13.9375 L 10.109375 -13.9375 L 10.109375 -11.078125 L 6.203125 -11.078125 L 6.203125 -4.359375 C 6.203125 -3.816406 6.351562 -3.414062 6.65625 -3.15625 C 6.96875 -2.90625 7.367188 -2.78125 7.859375 -2.78125 Z M 7.859375 -2.78125 " />
            </g>
        </g>
    </g>
</svg>